<svg version="1.1" id="Слой_1" xmlns="http://www.w3.org/2000/svg" x="0" y="0" viewBox="0 0 484.7 193.8" style="enable-background:new 0 0 484.7 193.8" xml:space="preserve"><style>.st0{fill:#d3d3d3}.st1{fill:#f6a316}.st2{fill:#010202}.st4{fill:#fff}.st5{fill:#dc153d}</style><ellipse class="st0" cx="398.9" cy="180.7" rx="55.5" ry="13.1"/><ellipse class="st0" cx="176.4" cy="180.7" rx="55.5" ry="13.1"/><path class="st1" d="M116.1 12.8 110.2 47l40.1-29z"/><path class="st2" d="m120 17.7-2.7 22.1 20.6-18.4z"/><circle class="st1" cx="176.4" cy="96.2" r="85.3"/><circle cx="398.9" cy="96.2" r="85.3" style="fill:gold"/><path class="st1" d="m219 0-26.6 12.4 42.1 22.5z"/><path class="st2" d="m216.7 5.7 8.4 20.5-24.7-12.3z"/><circle class="st4" cx="168" cy="74.7" r="35.7"/><circle class="st4" cx="212.1" cy="74.7" r="35.7"/><circle class="st4" cx="363.2" cy="74.7" r="35.7"/><circle class="st4" cx="414.2" cy="74.7" r="35.7"/><ellipse transform="rotate(-74.353 54.308 106.703)" class="st1" cx="54.3" cy="106.7" rx="22" ry="55.5"/><ellipse class="st5" cx="179.2" cy="139" rx="16.4" ry="6.5"/><ellipse class="st5" cx="389.2" cy="139" rx="6.5" ry="16.4"/><circle class="st2" cx="195.6" cy="110.4" r="11"/><circle class="st2" cx="176.4" cy="74.7" r="8.5"/><circle class="st2" cx="220.6" cy="74.7" r="8.5"/><circle class="st2" cx="357.4" cy="74.7" r="8.5"/><circle class="st2" cx="405.7" cy="74.7" r="8.5"/><path class="st4" d="m6.1 90.5 16.2 22.7 10.9-29.3z"/></svg>